<svg xmlns="http://www.w3.org/2000/svg" viewBox="0 -764.4388485532593 1400 823.8776971065186">
<g stroke="#000000" fill="#000000" stroke-width="0" transform="matrix(1 0 0 -1 0 0)">
<path stroke-width="10" d="M409 0H145Q117 0 103 0T81 1T72 3T70 6Q70 9 310 354T557 707Q559 711 565 713Q570 716 587 716Q608 716 613 710Q616 704 683 358Q752 9 750 6Q750 2 747 2Q745 0 409 0ZM581 342L531 597Q530 597 352 342T174 85T403 84T632 86Q632 87 581 342Z"/>
<path stroke-width="10" d="M52 289Q59 331 106 386T222 442Q257 442 286 424T329 379Q371 442 430 442Q467 442 494 420T522 361Q522 332 508 314T481 292T458 288Q439 288 427 299T415 328Q415 374 465 391Q454 404 425 404Q412 404 406 402Q368 386 350 336Q290 115 290 78Q290 50 306 38T341 26Q378 26 414 59T463 140Q466 150 469 151T485 153H489Q504 153 504 145Q504 144 502 134Q486 77 440 33T333 -11Q263 -11 227 52Q186 -10 133 -10H127Q78 -10 57 16T35 71Q35 103 54 123T99 143Q142 143 142 101Q142 81 130 66T107 46T94 41L91 40Q91 39 97 36T113 29T132 26Q168 26 194 71Q203 87 217 139T245 247T261 313Q266 340 266 352Q266 380 251 392T217 404Q177 404 142 372T93 290Q91 281 88 280T72 278H58Q52 284 52 289Z" transform="translate(823,0)"/>
</g>
</svg>
