<svg xmlns="http://www.w3.org/2000/svg" viewBox="0 -491.4388485532593 631 743.8776971065186">
<g stroke="#000000" fill="#000000" stroke-width="0" transform="matrix(1 0 0 -1 0 0)">
<path stroke-width="10" d="M576 -125Q576 -147 547 -175T487 -204H476Q394 -204 363 -157Q334 -114 293 26L284 59Q283 58 248 19T170 -66T92 -151T53 -191Q49 -194 43 -194Q36 -194 31 -189T25 -177T38 -154T151 -30L272 102L265 131Q189 405 135 405Q104 405 87 358Q86 351 68 351Q48 351 48 361Q48 369 56 386T89 423T148 442Q224 442 258 400Q276 375 297 320T330 222L341 180Q344 180 455 303T573 429Q579 431 582 431Q600 431 600 414Q600 407 587 392T477 270Q356 138 353 134L362 102Q392 -10 428 -89T490 -168Q504 -168 517 -156T536 -126Q539 -116 543 -115T557 -114T571 -115Q576 -118 576 -125Z"/>
</g>
</svg>
