<svg xmlns="http://www.w3.org/2000/svg" viewBox="0 -764.4388485532593 1189 823.8776971065186">
<g stroke="#000000" fill="#000000" stroke-width="0" transform="matrix(1 0 0 -1 0 0)">
<path stroke-width="10" d="M409 0H145Q117 0 103 0T81 1T72 3T70 6Q70 9 310 354T557 707Q559 711 565 713Q570 716 587 716Q608 716 613 710Q616 704 683 358Q752 9 750 6Q750 2 747 2Q745 0 409 0ZM581 342L531 597Q530 597 352 342T174 85T403 84T632 86Q632 87 581 342Z"/>
<path stroke-width="10" d="M26 385Q19 392 19 395Q19 399 22 411T27 425Q29 430 36 430T87 431H140L159 511Q162 522 166 540T173 566T179 586T187 603T197 615T211 624T229 626Q247 625 254 615T261 596Q261 589 252 549T232 470L222 433Q222 431 272 431H323Q330 424 330 420Q330 398 317 385H210L174 240Q135 80 135 68Q135 26 162 26Q197 26 230 60T283 144Q285 150 288 151T303 153H307Q322 153 322 145Q322 142 319 133Q314 117 301 95T267 48T216 6T155 -11Q125 -11 98 4T59 56Q57 64 57 83V101L92 241Q127 382 128 383Q128 385 77 385H26Z" transform="translate(823,0)"/>
</g>
</svg>
